{"asset":{"version":"2.0","generator":"Blockbench 4.10.3 glTF exporter"},"scenes":[{"nodes":[3],"name":"blockbench_export"}],"scene":0,"nodes":[{"translation":[0,0.0625,0.0625],"name":"tower","mesh":0},{"rotation":[-0.7071067811865475,0,0,0.7071067811865476],"translation":[0,0.234375,-0.1875],"name":"Barrel","mesh":1},{"name":"Turret","children":[0,1]},{"children":[2]}],"bufferViews":[{"buffer":0,"byteOffset":0,"byteLength":2640,"target":34962,"byteStride":12},{"buffer":0,"byteOffset":2640,"byteLength":2640,"target":34962,"byteStride":12},{"buffer":0,"byteOffset":5280,"byteLength":1760,"target":34962,"byteStride":8},{"buffer":0,"byteOffset":7040,"byteLength":600,"target":34963},{"buffer":0,"byteOffset":7640,"byteLength":720,"target":34962,"byteStride":12},{"buffer":0,"byteOffset":8360,"byteLength":720,"target":34962,"byteStride":12},{"buffer":0,"byteOffset":9080,"byteLength":480,"target":34962,"byteStride":8},{"buffer":0,"byteOffset":9560,"byteLength":144,"target":34963}],"buffers":[{"byteLength":9704,"uri":"data:application/octet-stream;base64,"}],"accessors":[{"bufferView":0,"componentType":5126,"count":220,"max":[0.3878655433654785,0.375,0.375],"min":[-0.3878655433654785,-0.0625,-0.3125],"type":"VEC3"},{"bufferView":1,"componentType":5126,"count":220,"max":[0.9495663046836853,1,1],"min":[-0.9495663046836853,-0.9500526785850525,-1],"type":"VEC3"},{"bufferView":2,"componentType":5126,"count":220,"max":[0.8373374342918396,0.7927515506744385],"min":[0,0],"type":"VEC2"},{"bufferView":3,"componentType":5123,"count":300,"max":[219],"min":[0],"type":"SCALAR"},{"bufferView":4,"componentType":5126,"count":60,"max":[0.08183756470680237,0.375,0.0625],"min":[-0.08183756470680237,0,-0.0625],"type":"VEC3"},{"bufferView":5,"componentType":5126,"count":60,"max":[0.8366420865058899,1,1],"min":[-0.8366420865058899,-1,-1],"type":"VEC3"},{"bufferView":6,"componentType":5126,"count":60,"max":[0.6063968539237976,0.890625],"min":[0.046875,0.15625],"type":"VEC2"},{"bufferView":7,"componentType":5123,"count":72,"max":[59],"min":[0],"type":"SCALAR"}],"materials":[{"pbrMetallicRoughness":{"metallicFactor":0,"roughnessFactor":1,"baseColorTexture":{"index":0}},"alphaMode":"MASK","alphaCutoff":0.05,"doubleSided":true}],"textures":[{"sampler":0,"source":0,"name":"Tonk"}],"samplers":[{"magFilter":9728,"minFilter":9728,"wrapS":33071,"wrapT":33071}],"images":[{"mimeType":"image/png","uri":"data:image/png;base64,"}],"meshes":[{"primitives":[{"mode":4,"attributes":{"POSITION":0,"NORMAL":1,"TEXCOORD_0":2},"indices":3,"material":0}]},{"primitives":[{"mode":4,"attributes":{"POSITION":4,"NORMAL":5,"TEXCOORD_0":6},"indices":7,"material":0}]}]}