{"asset":{"version":"2.0","generator":"Blockbench 4.10.3 glTF exporter"},"scenes":[{"nodes":[5],"name":"blockbench_export"}],"scene":0,"nodes":[{"rotation":[0,0,-0.7071067811865475,0.7071067811865476],"translation":[0.171875,0.1875,0],"name":"thread_L","mesh":0},{"rotation":[0,0,0.7071067811865475,0.7071067811865476],"translation":[-0.171875,0.1875,0],"name":"thread_L","mesh":1},{"name":"threads","children":[0,1]},{"name":"Body","mesh":2},{"name":"root","children":[2,3]},{"children":[4]}],"bufferViews":[{"buffer":0,"byteOffset":0,"byteLength":1536,"target":34962,"byteStride":12},{"buffer":0,"byteOffset":1536,"byteLength":1536,"target":34962,"byteStride":12},{"buffer":0,"byteOffset":3072,"byteLength":1024,"target":34962,"byteStride":8},{"buffer":0,"byteOffset":4096,"byteLength":384,"target":34963},{"buffer":0,"byteOffset":4480,"byteLength":1536,"target":34962,"byteStride":12},{"buffer":0,"byteOffset":6016,"byteLength":1536,"target":34962,"byteStride":12},{"buffer":0,"byteOffset":7552,"byteLength":1024,"target":34962,"byteStride":8},{"buffer":0,"byteOffset":8576,"byteLength":384,"target":34963},{"buffer":0,"byteOffset":8960,"byteLength":6048,"target":34962,"byteStride":12},{"buffer":0,"byteOffset":15008,"byteLength":6048,"target":34962,"byteStride":12},{"buffer":0,"byteOffset":21056,"byteLength":4032,"target":34962,"byteStride":8},{"buffer":0,"byteOffset":25088,"byteLength":1512,"target":34963}],"buffers":[{"byteLength":26600,"uri":"data:application/octet-stream;base64,"}],"accessors":[{"bufferView":0,"componentType":5126,"count":128,"max":[0.1875,0.296875,0.5],"min":[-0.125,0.078125,-0.5],"type":"VEC3"},{"bufferView":1,"componentType":5126,"count":128,"max":[1,1,1],"min":[-1,-1,-1],"type":"VEC3"},{"bufferView":2,"componentType":5126,"count":128,"max":[0.8252906203269958,0.84375],"min":[0.109375,0],"type":"VEC2"},{"bufferView":3,"componentType":5123,"count":192,"max":[127],"min":[0],"type":"SCALAR"},{"bufferView":4,"componentType":5126,"count":128,"max":[0.125,0.296875,0.5],"min":[-0.1875,0.078125,-0.5],"type":"VEC3"},{"bufferView":5,"componentType":5126,"count":128,"max":[1,1,1],"min":[-1,-1,-1],"type":"VEC3"},{"bufferView":6,"componentType":5126,"count":128,"max":[0.8252906203269958,0.84375],"min":[0.109375,0],"type":"VEC2"},{"bufferView":7,"componentType":5123,"count":192,"max":[127],"min":[0],"type":"SCALAR"},{"bufferView":8,"componentType":5126,"count":504,"max":[0.5,0.6248158812522888,0.5600952506065369],"min":[-0.5,0.125,-0.5542652010917664],"type":"VEC3"},{"bufferView":9,"componentType":5126,"count":504,"max":[1,0.9999622106552124,0.9970544576644897],"min":[-1,-1,-0.9999974966049194],"type":"VEC3"},{"bufferView":10,"componentType":5126,"count":504,"max":[0.953125,0.8695012927055359],"min":[0,0],"type":"VEC2"},{"bufferView":11,"componentType":5123,"count":756,"max":[503],"min":[0],"type":"SCALAR"}],"materials":[{"pbrMetallicRoughness":{"metallicFactor":0,"roughnessFactor":1,"baseColorTexture":{"index":0}},"alphaMode":"MASK","alphaCutoff":0.05,"doubleSided":true}],"textures":[{"sampler":0,"source":0,"name":"TonkTestTexture.png"}],"samplers":[{"magFilter":9728,"minFilter":9728,"wrapS":33071,"wrapT":33071}],"images":[{"mimeType":"image/png","uri":"data:image/png;base64,"}],"meshes":[{"primitives":[{"mode":4,"attributes":{"POSITION":0,"NORMAL":1,"TEXCOORD_0":2},"indices":3,"material":0}]},{"primitives":[{"mode":4,"attributes":{"POSITION":4,"NORMAL":5,"TEXCOORD_0":6},"indices":7,"material":0}]},{"primitives":[{"mode":4,"attributes":{"POSITION":8,"NORMAL":9,"TEXCOORD_0":10},"indices":11,"material":0}]}]}